HIERARCHY
ROOT Hips
{
	OFFSET -0.001795 -0.223333 0.028219
	CHANNELS 6 Xposition Yposition Zposition Zrotation Yrotation Xrotation 
	JOINT LeftUpLeg
	{
		OFFSET 0.069520 -0.091406 -0.006815
		CHANNELS 3 Zrotation Yrotation Xrotation
		JOINT LeftLeg
		{
			OFFSET 0.034277 -0.375199 -0.004496
			CHANNELS 3 Zrotation Yrotation Xrotation
			JOINT LeftFoot
			{
				OFFSET -0.013596 -0.397961 -0.043693
				CHANNELS 3 Zrotation Yrotation Xrotation
				JOINT LeftToe
				{
					OFFSET 0.026358 -0.055791 0.119288
					CHANNELS 3 Zrotation Yrotation Xrotation
					End Site
					{
						OFFSET 0.000000 0.000000 0.000000
					}
				}
			}
		}
	}
	JOINT RightUpLeg
	{
		OFFSET -0.067670 -0.090522 -0.004320
		CHANNELS 3 Zrotation Yrotation Xrotation
		JOINT RightLeg
		{
			OFFSET -0.038290 -0.382569 -0.008850
			CHANNELS 3 Zrotation Yrotation Xrotation
			JOINT RightFoot
			{
				OFFSET 0.015774 -0.398415 -0.042312
				CHANNELS 3 Zrotation Yrotation Xrotation
				JOINT RightToe
				{
					OFFSET -0.025372 -0.048144 0.123348
					CHANNELS 3 Zrotation Yrotation Xrotation
					End Site
					{
						OFFSET 0.000000 0.000000 0.000000
					}
				}
			}
		}
	}
	JOINT Spine
	{
		OFFSET -0.002533 0.108963 -0.026696
		CHANNELS 3 Zrotation Yrotation Xrotation
		JOINT Spine1
		{
			OFFSET 0.005487 0.135180 0.001092
			CHANNELS 3 Zrotation Yrotation Xrotation
			JOINT Spine2
			{
				OFFSET 0.001457 0.052922 0.025425
				CHANNELS 3 Zrotation Yrotation Xrotation
				JOINT Neck
				{
					OFFSET -0.002778 0.213870 -0.042857
					CHANNELS 3 Zrotation Yrotation Xrotation
					JOINT Head
					{
						OFFSET 0.005152 0.064970 0.051349
						CHANNELS 3 Zrotation Yrotation Xrotation
						End Site
						{
							OFFSET 0.000000 0.000000 0.000000
						}
					}
				}
				JOINT LeftShoulder
				{
					OFFSET 0.078845 0.121749 -0.034090
					CHANNELS 3 Zrotation Yrotation Xrotation
					JOINT LeftArm
					{
						OFFSET 0.090977 0.030469 -0.008868
						CHANNELS 3 Zrotation Yrotation Xrotation
						JOINT LeftForeArm
						{
							OFFSET 0.259612 -0.012772 -0.027456
							CHANNELS 3 Zrotation Yrotation Xrotation
							JOINT LeftHand
							{
								OFFSET 0.249234 0.008986 -0.001171
								CHANNELS 3 Zrotation Yrotation Xrotation
								End Site
								{
									OFFSET 0.000000 0.000000 0.000000
								}
							}
						}
					}
				}
				JOINT RightShoulder
				{
					OFFSET -0.081759 0.118833 -0.038615
					CHANNELS 3 Zrotation Yrotation Xrotation
					JOINT RightArm
					{
						OFFSET -0.096012 0.032551 -0.009143
						CHANNELS 3 Zrotation Yrotation Xrotation
						JOINT RightForeArm
						{
							OFFSET -0.253742 -0.013329 -0.021401
							CHANNELS 3 Zrotation Yrotation Xrotation
							JOINT RightHand
							{
								OFFSET -0.255298 0.007772 -0.005559
								CHANNELS 3 Zrotation Yrotation Xrotation
								End Site
								{
									OFFSET 0.000000 0.000000 0.000000
								}
							}
						}
					}
				}
			}
		}
	}
}
MOTION
Frames: 11
Frame Time: 0.050000
-0.153735 0.932770 -0.066982 0.568770 7.606565 -5.799993 18.336323 -0.522795 0.005383 -2.973074 -0.084927 15.314051 0.615750 9.882973 23.647090 0.000000 0.000000 0.000000 -14.438833 -0.376604 -5.310293 0.757392 0.192172 14.738363 9.193556 12.000742 15.088847 0.000000 0.000000 0.000000 7.309837 -2.259948 19.443442 -10.549923 2.938304 -29.302552 1.083068 6.792335 30.943317 9.314855 -3.050524 -21.575034 0.000000 0.000000 0.000000 -11.245324 8.291335 -5.905398 -43.131283 -4.894222 -5.795210 13.857959 -20.347545 -1.996086 0.000000 0.000000 0.000000 19.186623 -20.060737 -10.051861 45.527859 -7.730854 -9.938114 -2.323818 19.449111 1.070148 0.000000 0.000000 0.000000 
-0.116305 0.919432 -0.080529 0.274813 6.970045 -6.799885 17.108291 -0.355267 -0.760688 -3.491807 -0.096339 19.566557 1.242662 8.996974 17.207067 0.000000 0.000000 0.000000 -16.057561 -0.591925 -7.503940 -0.523666 0.628239 18.659365 9.815421 12.657828 15.624061 0.000000 0.000000 0.000000 6.620622 -2.426675 21.906631 -9.466314 2.639633 -30.622320 0.969584 7.911092 30.839029 11.092648 -3.981226 -22.437778 0.000000 0.000000 0.000000 -8.700954 7.346700 -4.839829 -40.104189 -8.217373 -4.382464 17.620732 -17.348203 -2.412993 0.000000 0.000000 0.000000 17.093120 -20.766179 -10.054142 41.402178 -6.873894 -8.888440 -5.459135 16.835849 0.541896 0.000000 0.000000 0.000000 
-0.076222 0.911070 -0.096280 0.007356 6.263175 -7.144001 15.165157 -0.180090 -2.500367 -4.346734 0.051045 23.436851 2.882898 9.706850 11.099535 0.000000 0.000000 0.000000 -17.538097 -0.780417 -8.936294 -1.802672 1.055040 19.271230 10.445274 11.714394 18.788429 0.000000 0.000000 0.000000 6.235319 -2.391498 22.476292 -9.867426 2.719058 -30.550780 1.351314 7.301079 30.537130 11.671262 -4.201832 -24.138220 0.000000 0.000000 0.000000 -5.040050 7.175075 -3.703428 -34.663452 -14.138824 -2.426596 20.735476 -9.635559 -1.700805 0.000000 0.000000 0.000000 13.430283 -20.343889 -9.466808 34.502519 -4.775619 -7.025314 -9.434034 13.334987 0.064961 0.000000 0.000000 0.000000 
-0.035283 0.912864 -0.112056 -0.151559 5.879218 -7.206931 13.104424 -0.127277 -3.386491 -5.345474 0.359651 24.564853 3.409312 9.660956 7.945368 0.000000 0.000000 0.000000 -18.625315 -0.830482 -8.378361 -3.584240 1.442483 16.430152 8.889682 6.791106 23.021315 0.000000 0.000000 0.000000 5.772538 -2.302127 22.600292 -8.714379 2.501691 -30.422277 0.006673 7.227207 30.912697 11.339919 -3.748714 -25.498986 0.000000 0.000000 0.000000 0.230646 6.759902 -2.317521 -27.341101 -16.533791 -1.716609 23.245370 -2.319296 -0.771183 0.000000 0.000000 0.000000 9.070696 -19.960651 -8.782471 26.075480 -1.944358 -4.887729 -10.774078 8.087317 0.067564 0.000000 0.000000 0.000000 
0.001785 0.925972 -0.126092 -0.330912 4.175399 -6.104642 11.063050 -0.108626 -3.575693 -5.843793 0.685352 22.727581 3.006932 8.929826 8.138062 0.000000 0.000000 0.000000 -18.882752 -0.718364 -8.965184 -4.975876 1.589386 12.922649 7.738076 2.582507 27.845113 0.000000 0.000000 0.000000 3.735458 -1.807220 22.228544 -6.212748 1.954414 -31.396089 -0.007231 7.601665 30.493255 12.584525 -5.069484 -23.622874 0.000000 0.000000 0.000000 5.707411 8.590186 -1.801085 -19.145658 -17.652466 -1.395677 21.242023 3.304848 0.134340 0.000000 0.000000 0.000000 2.640238 -20.846504 -8.467127 17.815294 1.687040 -2.941200 -10.721996 2.426572 0.289979 0.000000 0.000000 0.000000 
0.030842 0.946695 -0.136758 -1.493172 2.101842 -4.648277 10.377434 -0.089568 -2.425895 -5.374891 0.697030 17.862906 1.440907 6.898713 10.720041 0.000000 0.000000 0.000000 -17.763747 -0.571609 -11.638772 -5.090940 1.665206 13.225388 6.519475 -0.724611 31.039717 0.000000 0.000000 0.000000 2.806496 -1.513383 21.537162 -4.393585 1.557612 -32.668076 -0.236489 7.328630 30.034930 10.664666 -4.046160 -23.344297 0.000000 0.000000 0.000000 11.715912 9.960753 -1.204210 -11.388087 -16.413671 -1.347454 20.503790 7.412191 0.712582 0.000000 0.000000 0.000000 -3.199434 -19.467709 -7.112617 10.993228 3.722374 -1.720428 -10.840267 -0.323799 0.412520 0.000000 0.000000 0.000000 
0.051460 0.974361 -0.144653 -2.610039 0.688946 -2.967902 9.146132 -0.082013 -0.737977 -2.985550 0.212803 11.437363 -0.217561 5.740382 16.195325 0.000000 0.000000 0.000000 -15.156373 -0.235595 -13.552547 -4.081201 1.718293 16.714847 5.396023 -1.715015 28.760013 0.000000 0.000000 0.000000 2.537018 -1.442533 21.718469 -2.771366 1.246316 -35.616545 -1.006786 6.657214 30.733334 11.595201 -5.649618 -20.246191 0.000000 0.000000 0.000000 17.734856 14.046759 -1.432464 -5.053145 -16.096372 -1.282506 17.751493 8.142630 0.734159 0.000000 0.000000 0.000000 -9.076666 -21.450154 -6.854872 7.081702 7.082801 -1.181869 -11.703910 -0.173078 0.418718 0.000000 0.000000 0.000000 
0.065939 1.003347 -0.150519 -3.646785 -1.270936 -1.228836 9.199915 -0.054840 0.445348 -0.699722 -0.103040 6.743715 -3.136637 2.931340 21.813914 0.000000 0.000000 0.000000 -11.111386 0.337549 -15.469146 -4.058851 2.209379 21.937229 6.202067 -0.585696 27.824240 0.000000 0.000000 0.000000 3.433127 -1.488485 20.704788 -2.983742 1.282431 -36.093344 -1.255567 6.634744 28.919298 11.203554 -6.358332 -16.278951 0.000000 0.000000 0.000000 24.359641 15.754712 -0.776521 0.639621 -15.123650 -1.106993 16.115474 7.662234 0.641500 0.000000 0.000000 0.000000 -13.584168 -21.067281 -5.819834 0.917616 9.228123 -0.710496 -12.186894 -0.718587 0.439844 0.000000 0.000000 0.000000 
0.076925 1.026745 -0.154837 -3.308874 -1.426170 -0.459731 8.626905 -0.044910 1.334075 0.637287 -0.182037 2.846415 -4.728803 2.424275 26.899794 0.000000 0.000000 0.000000 -9.201790 0.544423 -14.383986 -3.665577 2.180857 22.949432 6.169115 -0.862249 28.347954 0.000000 0.000000 0.000000 1.944782 -1.156870 19.867439 -1.452907 1.100223 -37.827271 -2.104798 5.859903 29.695380 11.710144 -7.664657 -13.493862 0.000000 0.000000 0.000000 27.916722 15.718814 -0.621746 9.310590 -14.032813 -0.802307 18.545030 8.737547 0.882280 0.000000 0.000000 0.000000 -16.113731 -20.977272 -5.343177 -6.325925 13.970121 -0.800397 -13.471131 -4.222841 0.753726 0.000000 0.000000 0.000000 
0.085699 1.035822 -0.157910 -3.026029 -1.388149 0.140904 8.109981 -0.052086 1.039591 1.083444 -0.173626 1.221003 -5.096548 2.659782 29.078993 0.000000 0.000000 0.000000 -8.373850 0.590186 -12.901481 -3.630057 2.059395 21.674301 6.341571 -0.787367 28.809198 0.000000 0.000000 0.000000 2.410469 -1.143967 18.217914 -2.156418 1.179341 -37.301115 -1.648413 5.465655 27.822287 13.790646 -9.573542 -12.502156 0.000000 0.000000 0.000000 33.991760 15.217700 0.424987 13.773881 -16.375835 -1.254700 22.968134 11.468849 1.567721 0.000000 0.000000 0.000000 -21.695272 -19.098753 -3.948141 -14.721060 17.304472 -1.273290 -15.565471 -8.406496 1.308388 0.000000 0.000000 0.000000 
0.091963 1.035496 -0.160466 -2.836148 -0.695424 -0.323550 7.348816 -0.030427 1.604589 0.657559 -0.159493 2.190040 -4.001210 4.261548 29.496826 0.000000 0.000000 0.000000 -7.530891 0.564000 -10.950019 -4.294766 2.022547 19.293048 5.920059 -1.221320 28.741756 0.000000 0.000000 0.000000 2.845354 -1.158622 17.098955 -2.981237 1.272740 -36.556488 -1.412455 5.106218 27.566435 13.485386 -9.251255 -12.739025 0.000000 0.000000 0.000000 38.602742 13.173112 1.158691 18.445824 -17.999595 -1.749539 31.383150 16.297917 3.244809 0.000000 0.000000 0.000000 -26.471262 -18.910618 -3.258942 -21.504103 22.502334 -2.703564 -18.308988 -11.453163 1.966507 0.000000 0.000000 0.000000 
